<?xml version="1.0" encoding="utf-8"?>
<!-- Generator: Adobe Illustrator 16.0.0, SVG Export Plug-In . SVG Version: 6.00 Build 0)  -->
<!DOCTYPE svg PUBLIC "-//W3C//DTD SVG 1.1//EN" "http://www.w3.org/Graphics/SVG/1.1/DTD/svg11.dtd">
<svg version="1.1" id="Capa_1" xmlns="http://www.w3.org/2000/svg" xmlns:xlink="http://www.w3.org/1999/xlink" x="0px" y="0px"
	 width="200px" height="200px" viewBox="0 0 200 200" enable-background="new 0 0 200 200" xml:space="preserve">
<path fill="#161515" d="M168.392,43.635c-0.207-2.566-2.36-4.512-4.968-4.512h-24.26C139.123,17.553,121.568,0,100,0
	C78.431,0,60.877,17.553,60.836,39.123h-24.26c-2.566,0-4.719,1.946-4.968,4.512L20.099,173.339c0,0.165,0,0.29,0,0.456
	C20.099,188.242,33.389,200,49.7,200h100.601c16.311,0,29.6-11.758,29.6-26.205c0-0.166,0-0.291,0-0.456L168.392,43.635z
	 M70.772,38.123C70.813,22.018,83.896,8.936,100,8.936s29.187,13.082,29.229,29.187H70.772z"/>
</svg>
