<?xml version="1.0" encoding="utf-8"?>
<!-- Generator: Adobe Illustrator 16.0.3, SVG Export Plug-In . SVG Version: 6.00 Build 0)  -->
<!DOCTYPE svg PUBLIC "-//W3C//DTD SVG 1.1//EN" "http://www.w3.org/Graphics/SVG/1.1/DTD/svg11.dtd">
<svg version="1.1" id="Layer_1" xmlns="http://www.w3.org/2000/svg" xmlns:xlink="http://www.w3.org/1999/xlink" x="0px" y="0px"
	 width="500px" height="500px" viewBox="0 0 500 500" enable-background="new 0 0 500 500" xml:space="preserve">
<g>
	<path fill="#050000" d="M384.978,488.092H117.023c-57.521,0-104.319-46.797-104.319-104.318V115.819
		C12.704,58.297,59.501,11.5,117.023,11.5h267.955c57.521,0,104.318,46.797,104.318,104.319v267.955
		C489.296,441.295,442.499,488.092,384.978,488.092z M117.023,41.5c-40.979,0-74.319,33.339-74.319,74.319v267.955
		c0,40.979,33.339,74.318,74.319,74.318h267.955c40.979,0,74.318-33.339,74.318-74.318V115.819
		c0-40.979-33.339-74.319-74.318-74.319H117.023z"/>
</g>
<g>
	<rect x="117.023" y="133.683" fill="#050000" width="267.955" height="53.591"/>
</g>
<g>
	<rect x="117.023" y="223" fill="#050000" width="53.591" height="53.592"/>
</g>
<g>
	<rect x="331.387" y="223" fill="#050000" width="53.591" height="53.592"/>
</g>
<g>
	<rect x="224.204" y="223" fill="#050000" width="53.592" height="53.592"/>
</g>
<g>
	<rect x="117.023" y="312.318" fill="#050000" width="53.591" height="53.592"/>
</g>
<g>
	<rect x="331.387" y="312.318" fill="#050000" width="53.591" height="53.592"/>
</g>
<g>
	<rect x="224.204" y="312.318" fill="#050000" width="53.592" height="53.592"/>
</g>
</svg>
