<?xml version="1.0" encoding="utf-8"?>
<!-- Generator: Adobe Illustrator 16.0.3, SVG Export Plug-In . SVG Version: 6.00 Build 0)  -->
<!DOCTYPE svg PUBLIC "-//W3C//DTD SVG 1.1//EN" "http://www.w3.org/Graphics/SVG/1.1/DTD/svg11.dtd">
<svg version="1.1" id="Layer_1" xmlns="http://www.w3.org/2000/svg" xmlns:xlink="http://www.w3.org/1999/xlink" x="0px" y="0px"
	 width="500px" height="500px" viewBox="0 0 500 500" enable-background="new 0 0 500 500" xml:space="preserve">
<g>
	<rect x="104.19" y="152.083" fill="#999999" width="159.587" height="31.677"/>
	<rect x="107.961" y="242.586" fill="#999999" width="226.257" height="30.169"/>
	<path fill="#999999" d="M479.785,54.159c-1.676-2.071-5.49-5.547-12.213-5.547c-5.592,0-14.9,2.175-41.537,18.307
		c-6.604,4-13.771,8.572-21.288,13.571c-16.585-20.659-42.037-33.91-70.529-33.91H107.961c-49.857,0-90.419,40.562-90.419,90.419
		v226.257c0,49.857,40.562,90.419,90.419,90.419h226.257c49.857,0,90.419-40.562,90.419-90.419V136.999
		c0-3.355-0.189-6.667-0.548-9.928c11.338-9.134,21.669-17.923,30.325-25.828c24.934-22.768,27.763-30.414,28.458-35.793
		C483.404,61.331,482.327,57.345,479.785,54.159z M334.218,423.675H107.961c-33.315,0-60.419-27.104-60.419-60.419V136.999
		c0-33.315,27.104-60.419,60.419-60.419h226.257c18.274,0,34.668,8.167,45.756,21.029c-5.328,3.812-10.717,7.747-16.11,11.769
		c-22.639,16.872-43.712,34.023-59.34,48.295c-24.935,22.769-27.764,30.415-28.459,35.794c-0.531,4.119,0.545,8.105,3.088,11.292
		c1.677,2.071,5.49,5.545,12.212,5.545c5.593,0,14.901-2.175,41.539-18.307c17.841-10.805,39.748-25.76,61.733-42.136v213.395
		C394.637,396.571,367.533,423.675,334.218,423.675z"/>
	<rect x="183.38" y="333.09" fill="#999999" width="150.838" height="30.167"/>
</g>
</svg>
