<?xml version="1.0" encoding="utf-8"?>
<!-- Generator: Adobe Illustrator 16.0.3, SVG Export Plug-In . SVG Version: 6.00 Build 0)  -->
<!DOCTYPE svg PUBLIC "-//W3C//DTD SVG 1.1//EN" "http://www.w3.org/Graphics/SVG/1.1/DTD/svg11.dtd">
<svg version="1.1" id="Layer_1" xmlns="http://www.w3.org/2000/svg" xmlns:xlink="http://www.w3.org/1999/xlink" x="0px" y="0px"
	 width="500px" height="500px" viewBox="0 0 500 500" enable-background="new 0 0 500 500" xml:space="preserve">
<g>
	<path fill="#020202" d="M418.175,300.889c-8.284,0-15,6.715-15,15v43.74c0,31.928-25.973,57.903-57.9,57.903H155.726
		c-31.928,0-57.904-25.976-57.904-57.903c0-0.954-0.099-1.885-0.269-2.79h58.173c6.818,0,13.051-3.853,16.1-9.95
		c3.049-6.098,2.391-13.396-1.7-18.85l-65.613-87.484c-3.4-4.533-8.734-7.2-14.4-7.2s-11.001,2.667-14.4,7.2L10.1,328.039
		c-4.091,5.454-4.749,12.752-1.7,18.85c3.049,6.098,9.282,9.95,16.1,9.95h43.591c-0.17,0.905-0.269,1.836-0.269,2.79
		c0,48.468,39.434,87.903,87.904,87.903h189.548c48.47,0,87.902-39.434,87.9-87.903v-43.74
		C433.175,307.604,426.459,300.889,418.175,300.889z"/>
	<path fill="#020202" d="M492.6,147.45c-3.049-6.098-9.281-9.95-16.1-9.95h-43.398c-1.803-46.89-40.503-84.483-87.827-84.483
		H155.726c-48.47,0-87.904,39.433-87.904,87.903v29.161c0,8.284,6.716,15,15,15c8.284,0,15-6.716,15-15V140.92
		c0-31.928,25.976-57.903,57.904-57.903h189.548c30.777,0,56.014,24.142,57.791,54.483h-57.789c-6.82,0-13.053,3.851-16.102,9.95
		c-3.049,6.099-2.392,13.396,1.699,18.85l65.614,87.484c3.397,4.532,8.732,7.2,14.398,7.2s11.001-2.668,14.402-7.2l65.613-87.484
		C494.993,160.846,495.65,153.548,492.6,147.45z"/>
</g>
</svg>
