<?xml version="1.0" encoding="utf-8"?>
<!-- Generator: Adobe Illustrator 16.0.3, SVG Export Plug-In . SVG Version: 6.00 Build 0)  -->
<!DOCTYPE svg PUBLIC "-//W3C//DTD SVG 1.1//EN" "http://www.w3.org/Graphics/SVG/1.1/DTD/svg11.dtd">
<svg version="1.1" id="Layer_1" xmlns="http://www.w3.org/2000/svg" xmlns:xlink="http://www.w3.org/1999/xlink" x="0px" y="0px"
	 width="500px" height="500px" viewBox="0 0 500 500" enable-background="new 0 0 500 500" xml:space="preserve">
<g>
	<rect x="155.753" y="238.529" width="189.647" height="39.06"/>
	<rect x="155.753" y="303.381" width="189.647" height="38.818"/>
	<polygon points="251.613,69.487 250.571,68.967 249.529,68.445 249.529,69.742 16.143,223.955 42.191,223.955 105.224,223.955 
		250.572,133.819 395.92,223.955 458.954,223.955 485,223.955 	"/>
	<polygon points="408.434,394.294 92.72,394.294 92.72,225.773 54.693,225.773 54.693,394.294 54.693,407.065 54.693,433.111 
		446.436,433.111 446.436,407.065 446.438,407.065 446.438,225.773 408.434,225.773 	"/>
	<polygon points="250.571,68.966 251.613,69.487 251.613,68.444 	"/>
</g>
</svg>
