<?xml version="1.0" encoding="utf-8"?>
<!-- Generator: Adobe Illustrator 16.0.3, SVG Export Plug-In . SVG Version: 6.00 Build 0)  -->
<!DOCTYPE svg PUBLIC "-//W3C//DTD SVG 1.1//EN" "http://www.w3.org/Graphics/SVG/1.1/DTD/svg11.dtd">
<svg version="1.1" id="Layer_1" xmlns="http://www.w3.org/2000/svg" xmlns:xlink="http://www.w3.org/1999/xlink" x="0px" y="0px"
	 width="500px" height="500px" viewBox="0 0 500 500" enable-background="new 0 0 500 500" xml:space="preserve">
<path fill="#313194" d="M413.002,21H85.301C65.331,21,25,65.495,25,85.188v327.695C25,432.568,65.331,481,85.301,481h327.701
	C432.977,481,477,432.568,477,412.884V85.188C477,65.495,432.977,21,413.002,21z M279.371,241.058L337,241.621v71.361l-57.068,1.199
	L279.982,441h-83.639l-0.277-129.928l-41.677-0.609l-0.293-69.539l46.246-0.363l0.57-19.459
	c0.282-40.814-0.292-89.352,46.251-103.92c10.271-3.13,21.115-5.141,31.676-6.002c10.563-1.141,21.414-1.715,32.249-2.29
	c2.292,0,32.555-2.757,32.555-1.616L344.206,177h-28.833c-11.124,9-23.125,3.623-29.395,14.185
	c-5.146,8.287-7.031,19.23-7.596,29.209C278.384,221.829,278.229,241.058,279.371,241.058z"/>
</svg>
