<?xml version="1.0" encoding="utf-8"?>
<!-- Generator: Adobe Illustrator 16.0.0, SVG Export Plug-In . SVG Version: 6.00 Build 0)  -->
<!DOCTYPE svg PUBLIC "-//W3C//DTD SVG 1.1//EN" "http://www.w3.org/Graphics/SVG/1.1/DTD/svg11.dtd">
<svg version="1.1" id="Layer_1" xmlns="http://www.w3.org/2000/svg" xmlns:xlink="http://www.w3.org/1999/xlink" x="0px" y="0px"
	 width="551.587px" height="551.587px" viewBox="0 0 551.587 551.587" enable-background="new 0 0 551.587 551.587"
	 xml:space="preserve">
<path fill-rule="evenodd" clip-rule="evenodd" fill="#FFFFFF" d="M508.076,0H43.511C19.458,0,0,19.458,0,43.511v464.565
	c0,24.052,19.458,43.511,43.511,43.511h464.565c24.052,0,43.511-19.458,43.511-43.511V43.511C551.587,19.458,532.128,0,508.076,0z
	 M312.565,231.818l70.175,0.613v86.11l-69.405,0.763l-0.157,152.299H211.903l-0.307-155.972l-50.26-0.463l-0.308-83.657
	l55.932-0.457l0.613-23.753c0.15-49.183-0.306-107.71,55.923-125.329c12.255-3.831,25.28-6.127,37.999-7.354
	c13.025-1.227,26.042-1.99,39.067-2.454c2.761-0.149,39.383-1.07,39.383,0.307l0.613,86.26c0,0-31.258,0.157-34.781,0.308
	c-13.639,0.306-27.892,1.839-35.552,14.558c-6.127,10.264-8.275,22.369-8.73,34.167
	C311.338,209.605,311.338,231.818,312.565,231.818z"/>
</svg>
