<?xml version="1.0" encoding="utf-8"?>
<!-- Generator: Adobe Illustrator 16.0.0, SVG Export Plug-In . SVG Version: 6.00 Build 0)  -->
<!DOCTYPE svg PUBLIC "-//W3C//DTD SVG 1.1//EN" "http://www.w3.org/Graphics/SVG/1.1/DTD/svg11.dtd">
<svg version="1.1" id="Layer_1" xmlns="http://www.w3.org/2000/svg" xmlns:xlink="http://www.w3.org/1999/xlink" x="0px" y="0px"
	 width="540.581px" height="540.581px" viewBox="0 0 540.581 540.581" enable-background="new 0 0 540.581 540.581"
	 xml:space="preserve">
<g>
	<polygon fill-rule="evenodd" clip-rule="evenodd" fill="#FFFFFF" stroke="#FFFFFF" stroke-miterlimit="10" points="
		293.376,271.492 293.376,270.737 292.917,271.492 	"/>
	<path fill-rule="evenodd" clip-rule="evenodd" fill="#FFFFFF" stroke="#FFFFFF" stroke-miterlimit="10" d="M497.516,0.081H43.064
		C19.535,0.081,0,19.535,0,43.064v454.452c0,23.533,19.535,42.564,43.065,42.564h454.452c23.54,0,42.483-19.031,42.483-42.564
		V43.064C540,19.535,521.056,0.081,497.516,0.081z M178,462.081h-74v-223h74V462.081z M141.387,209.081h-0.443
		c-24.886,0-40.921-17.359-40.921-38.641c0-21.883,16.488-38.583,41.822-38.583c25.328,0,40.914,16.731,41.363,38.614
		C183.209,191.753,167.173,209.081,141.387,209.081z M445,462.081h-74V342.684c0-29.829-10.57-50.352-37.238-50.352
		c-20.539,0-32.817,13.79-38.22,27.11c-1.944,4.652-2.542,11.4-2.542,18.004v124.635H219.33c0,0,0.902-202,0-223H293v31.656
		c10-15.29,27.512-36.872,66.785-36.872c48.71,0,85.215,31.931,85.215,100.271V462.081z"/>
</g>
</svg>
