<?xml version="1.0" encoding="utf-8"?>
<!-- Generator: Adobe Illustrator 16.0.3, SVG Export Plug-In . SVG Version: 6.00 Build 0)  -->
<!DOCTYPE svg PUBLIC "-//W3C//DTD SVG 1.1//EN" "http://www.w3.org/Graphics/SVG/1.1/DTD/svg11.dtd">
<svg version="1.1" id="Layer_1" xmlns="http://www.w3.org/2000/svg" xmlns:xlink="http://www.w3.org/1999/xlink" x="0px" y="0px"
	 width="500px" height="500px" viewBox="0 0 500 500" enable-background="new 0 0 500 500" xml:space="preserve">
<g>
	<polygon fill="#313194" points="267.535,248.946 267.535,248.385 267.242,248.946 	"/>
	<path fill="#313194" d="M409.674,24H87.179C67.53,24,24,67.479,24,86.858V409.35C24,428.723,67.53,477,87.179,477h322.495
		C429.314,477,477,428.723,477,409.35V86.858C477,67.479,429.314,24,409.674,24z M161,404H95V225h66V404z M128.482,194h-0.277
		c-20.795,0-34.001-12.845-34.001-30.816c0-17.977,13.771-31.267,34.832-31.267c21.073,0,33.999,12.916,34.283,30.891
		C163.318,180.781,150.109,194,128.482,194z M396,404h-65v-95.48c0-25.021-8.014-42.153-30.471-42.153
		c-16.865,0-26.889,11.532-31.383,22.757c-1.676,3.916-2.146,9.271-2.146,14.895V404h-60.974c0,0,0.83-163,0-179H267v23.385
		c7-12.632,24.189-30.62,56.779-30.62c40.706,0,72.221,26.404,72.221,83.453V404z"/>
</g>
</svg>
