<?xml version="1.0" encoding="utf-8"?>
<!-- Generator: Adobe Illustrator 16.0.3, SVG Export Plug-In . SVG Version: 6.00 Build 0)  -->
<!DOCTYPE svg PUBLIC "-//W3C//DTD SVG 1.1//EN" "http://www.w3.org/Graphics/SVG/1.1/DTD/svg11.dtd">
<svg version="1.1" id="Layer_1" xmlns="http://www.w3.org/2000/svg" xmlns:xlink="http://www.w3.org/1999/xlink" x="0px" y="0px"
	 width="500px" height="500px" viewBox="0 0 500 500" enable-background="new 0 0 500 500" xml:space="preserve">
<g>
	<path fill="#999999" d="M295.165,273.961c0-21.557-19.81-39.107-44.149-39.107c-24.332,0-44.149,17.55-44.149,39.107
		c0,11.135,13.214,21.03,21.726,28.159l-29.721,89.164h104.288l-29.722-89.164C281.941,294.991,295.165,285.096,295.165,273.961z"/>
	<path fill="#999999" d="M381.374,141.638h-20.237C355.947,63.543,314.382,15.5,251.016,15.5
		c-63.356,0-104.921,48.043-110.121,126.138h-20.239c-56.191,0-101.906,45.715-101.906,101.906v139.05
		c0,56.191,45.715,101.906,101.906,101.906h260.718c56.191,0,101.906-45.715,101.906-101.906v-139.05
		C483.28,187.353,437.565,141.638,381.374,141.638z M192.266,74.662c13.89-19.35,33.656-29.162,58.75-29.162
		c25.098,0,44.866,9.812,58.758,29.163c11.916,16.6,19.191,39.603,21.283,66.975H170.978
		C173.073,114.265,180.35,91.262,192.266,74.662z M453.28,382.594c0,39.649-32.257,71.906-71.906,71.906H120.656
		c-39.649,0-71.906-32.257-71.906-71.906v-139.05c0-39.649,32.257-71.906,71.906-71.906h260.718
		c39.649,0,71.906,32.257,71.906,71.906V382.594z"/>
</g>
</svg>
