<?xml version="1.0" encoding="utf-8"?>
<!-- Generator: Adobe Illustrator 16.0.3, SVG Export Plug-In . SVG Version: 6.00 Build 0)  -->
<!DOCTYPE svg PUBLIC "-//W3C//DTD SVG 1.1//EN" "http://www.w3.org/Graphics/SVG/1.1/DTD/svg11.dtd">
<svg version="1.1" id="Layer_1" xmlns="http://www.w3.org/2000/svg" xmlns:xlink="http://www.w3.org/1999/xlink" x="0px" y="0px"
	 width="500px" height="500px" viewBox="0 0 500 500" enable-background="new 0 0 500 500" xml:space="preserve">
<g>
	<path fill="#999999" d="M138.875,264.75C68.916,264.75,12,207.834,12,137.875S68.916,11,138.875,11S265.75,67.916,265.75,137.875
		S208.834,264.75,138.875,264.75z M138.875,41C85.458,41,42,84.458,42,137.875s43.458,96.875,96.875,96.875
		s96.875-43.458,96.875-96.875S192.292,41,138.875,41z"/>
</g>
<g>
	<path fill="#999999" d="M362.625,488.5c-69.959,0-126.875-56.916-126.875-126.875S292.666,234.75,362.625,234.75
		S489.5,291.666,489.5,361.625S432.584,488.5,362.625,488.5z M362.625,264.75c-53.417,0-96.875,43.458-96.875,96.875
		s43.458,96.875,96.875,96.875s96.875-43.458,96.875-96.875S416.042,264.75,362.625,264.75z"/>
</g>
<g>
	<path fill="#999999" d="M64.364,458.74c-3.79,0-7.583-1.429-10.502-4.291c-5.915-5.801-6.007-15.298-0.206-21.212L441.417,37.871
		c5.802-5.915,15.297-6.007,21.212-0.206s6.007,15.298,0.206,21.212L75.074,454.243C72.137,457.238,68.252,458.74,64.364,458.74z"/>
</g>
</svg>
