<?xml version="1.0" encoding="utf-8"?>
<!-- Generator: Adobe Illustrator 16.0.0, SVG Export Plug-In . SVG Version: 6.00 Build 0)  -->
<!DOCTYPE svg PUBLIC "-//W3C//DTD SVG 1.1//EN" "http://www.w3.org/Graphics/SVG/1.1/DTD/svg11.dtd">
<svg version="1.1" id="Layer_1" xmlns="http://www.w3.org/2000/svg" xmlns:xlink="http://www.w3.org/1999/xlink" x="0px" y="0px"
	 width="960px" height="580px" viewBox="0 0 960 580" enable-background="new 0 0 960 580" xml:space="preserve">
<g>
	<path fill="none" stroke="#FFFFFF" stroke-miterlimit="10" d="M586.794,86.238V43.111C586.794,19.309,564.943,0,537.9,0H293.397
		c-27.042,0-48.893,19.309-48.893,43.111v43.127v43.426h342.29V86.238z"/>
	<path fill="none" stroke="#FFFFFF" stroke-miterlimit="10" d="M749.809,158.306H65.191C29.268,158.306,0,184.056,0,215.903v143.835
		c0,31.847,29.268,57.597,65.191,57.597h97.805l28.525-57.597h36.684h32.596h309.695h28.526h36.683l24.438,57.597h89.665
		c35.924,0,65.191-25.75,65.191-57.597V215.903C815,184.056,785.732,158.306,749.809,158.306z M709.055,273.5
		c-22.611,0-40.753-16.088-40.753-36.042c0-19.953,18.142-36.041,40.753-36.041c22.593,0,40.754,16.088,40.754,36.041
		C749.809,257.412,731.647,273.5,709.055,273.5z"/>
</g>
<path fill="none" stroke="#FFFFFF" stroke-miterlimit="10" d="M260.5,410.5v144.389c0,23.803,22.152,43.611,49.195,43.611h211.907
	c27.042,0,48.897-19.809,48.897-43.611V410.5H260.5z M538.5,543.5h-250v-24h250V543.5z M538.5,480.5h-250v-24h250V480.5z"/>
</svg>
