<?xml version="1.0" encoding="utf-8"?>
<!-- Generator: Adobe Illustrator 16.0.0, SVG Export Plug-In . SVG Version: 6.00 Build 0)  -->
<!DOCTYPE svg PUBLIC "-//W3C//DTD SVG 1.1//EN" "http://www.w3.org/Graphics/SVG/1.1/DTD/svg11.dtd">
<svg version="1.1" id="Layer_1" xmlns="http://www.w3.org/2000/svg" xmlns:xlink="http://www.w3.org/1999/xlink" x="0px" y="0px"
	 width="125.181px" height="127.467px" viewBox="0 0 125.181 127.467" enable-background="new 0 0 125.181 127.467"
	 xml:space="preserve">
<g display="none">
	<defs>
		<rect id="SVGID_1_" x="-0.005" width="125.185" height="127.467"/>
	</defs>
	<use xlink:href="#SVGID_1_"  overflow="visible" fill="#BE2026"/>
	<clipPath id="SVGID_2_" display="inline">
		<use xlink:href="#SVGID_1_"  display="none" overflow="visible"/>
	</clipPath>
</g>
<path fill="#231F20" d="M47.151,94.373c-21.567,0-40.353-14.613-45.685-35.537C-4.957,33.628,10.326,7.895,35.533,1.471
	C39.363,0.495,43.292,0,47.212,0c21.567,0,40.354,14.613,45.686,35.538c3.111,12.211,1.281,24.903-5.152,35.738
	C81.311,82.11,71.042,89.791,58.831,92.902C55,93.879,51.071,94.373,47.151,94.373z M47.212,11.253c-2.983,0-5.978,0.377-8.9,1.122
	C19.117,17.267,7.48,36.863,12.371,56.058c4.06,15.935,18.362,27.063,34.78,27.063c2.983,0,5.978-0.377,8.901-1.122
	c9.299-2.369,17.118-8.218,22.018-16.468c4.899-8.251,6.293-17.916,3.924-27.214C77.933,22.382,63.63,11.253,47.212,11.253z"/>
<path fill="#231F20" d="M118.688,127.467c-1.595,0-3.192-0.584-4.446-1.763L73.126,87.05c-2.611-2.455-2.738-6.564-0.282-9.177
	s6.563-2.739,9.177-0.282l41.115,38.654c2.611,2.455,2.738,6.564,0.282,9.177C122.141,126.78,120.416,127.467,118.688,127.467z"/>
</svg>
