<?xml version="1.0" encoding="utf-8"?>
<!-- Generator: Adobe Illustrator 16.0.3, SVG Export Plug-In . SVG Version: 6.00 Build 0)  -->
<!DOCTYPE svg PUBLIC "-//W3C//DTD SVG 1.1//EN" "http://www.w3.org/Graphics/SVG/1.1/DTD/svg11.dtd">
<svg version="1.1" id="Layer_1" xmlns="http://www.w3.org/2000/svg" xmlns:xlink="http://www.w3.org/1999/xlink" x="0px" y="0px"
	 width="500px" height="500px" viewBox="0 0 500 500" enable-background="new 0 0 500 500" xml:space="preserve">
<g>
	<path fill="#999999" d="M379.841,479.732H122.16c-55.632,0-100.893-45.261-100.893-100.893V121.16
		c0-55.632,45.26-100.893,100.893-100.893h257.681c55.632,0,100.893,45.26,100.893,100.893v257.681
		C480.732,434.473,435.473,479.732,379.841,479.732z M122.16,50.268c-39.09,0-70.893,31.802-70.893,70.893v257.681
		c0,39.09,31.802,70.893,70.893,70.893h257.681c39.09,0,70.893-31.803,70.893-70.893V121.16c0-39.09-31.803-70.893-70.893-70.893
		L122.16,50.268L122.16,50.268z"/>
</g>
<g>
	<rect x="86.5" y="138.339" fill="#999999" width="324.875" height="85.893"/>
</g>
<g>
	<path fill="#999999" d="M379.841,393.841h-85.896c-8.283,0-15-6.716-15-15v-68.716c0-8.284,6.717-15,15-15h85.896
		c8.284,0,15,6.716,15,15v68.716C394.841,387.125,388.125,393.841,379.841,393.841z M308.946,363.841h55.895v-38.716h-55.895
		V363.841z"/>
</g>
</svg>
