<?xml version="1.0" encoding="iso-8859-1"?>
<!-- Generator: Adobe Illustrator 19.0.0, SVG Export Plug-In . SVG Version: 6.00 Build 0)  -->
<svg xmlns="http://www.w3.org/2000/svg" xmlns:xlink="http://www.w3.org/1999/xlink" version="1.1" id="Capa_1" x="0px" y="0px" viewBox="0 0 261 261" style="enable-background:new 0 0 261 261;" xml:space="preserve" width="512px" height="512px">
<g>
	<path d="M234.077,52.987L193.09,12h16.964c3.313,0,6-2.686,6-6s-2.687-6-6-6h-31c-3.314,0-6.333,2.687-6.333,6v33   c0,3.313,2.687,6,6,6c3.314,0,6-2.687,6-6V20.933l40.706,40.539c1.171,1.172,2.79,1.758,4.325,1.758   c1.535,0,3.113-0.586,4.284-1.758C236.379,59.129,236.421,55.33,234.077,52.987z" fill="#000000"/>
	<path d="M220.036,145.801c-3.973-23.739-20.508-26.75-28.642-26.75c-0.268,0-0.524,0.003-0.773,0.009   c-0.056,0.001-0.111,0.002-0.168,0.002c-2.22,0-4.453-1.036-5.5-2.991c-5.441-10.166-14.302-11.736-20.921-11.736   c-0.353,0-0.698,0.005-1.037,0.013c-0.04,0.001-0.127,0.001-0.167,0.001c-2.788,0-5.107-2.256-5.107-5.059V33.794   c0-8.679-6.287-16.837-16.27-16.837c-9.208,0-16.73,7.001-16.73,16.11v65.66c0,3.234-2.605,6.272-5.84,6.272   c-0.032,0-0.064,0-0.097,0c-3.175,0-5.759-2.748-5.758-5.935l0.016-53.484c0.005-10.518-8.134-15.822-16.273-15.822   c-8.133,0-16.265,5.231-16.269,15.741c0,0-0.041,101.477-0.038,105.622c0.003,3.695-2.989,5.971-6.026,5.971   c-1.859,0-3.734-0.855-4.953-2.76l-14.775-23.092c-3.342-5.52-8.2-7.81-13.013-7.81c-10.808-0.001-21.393,11.536-14.098,23.923   c0.084,0.143,0.164,0.291,0.235,0.44l59.906,109.421c1.094,2.312,3.423,3.765,5.98,3.766l82.675,0.02h0.003   c3.162,0,5.883-2.214,6.496-5.316l8.26-24.7c0.166-0.838,0.499-1.636,0.969-2.35C215.258,193.467,223.892,168.841,220.036,145.801z   " fill="#000000"/>
</g>
<g>
</g>
<g>
</g>
<g>
</g>
<g>
</g>
<g>
</g>
<g>
</g>
<g>
</g>
<g>
</g>
<g>
</g>
<g>
</g>
<g>
</g>
<g>
</g>
<g>
</g>
<g>
</g>
<g>
</g>
</svg>
