<?xml version="1.0" encoding="utf-8"?>
<!-- Generator: Adobe Illustrator 16.0.3, SVG Export Plug-In . SVG Version: 6.00 Build 0)  -->
<!DOCTYPE svg PUBLIC "-//W3C//DTD SVG 1.1//EN" "http://www.w3.org/Graphics/SVG/1.1/DTD/svg11.dtd">
<svg version="1.1" id="Layer_1" xmlns="http://www.w3.org/2000/svg" xmlns:xlink="http://www.w3.org/1999/xlink" x="0px" y="0px"
	 width="500px" height="500px" viewBox="0 0 500 500" enable-background="new 0 0 500 500" xml:space="preserve">
<path fill="#313194" d="M411.315,28H94.097C75.033,28,32,71.04,32,90.103v317.228C32,426.386,75.033,473,94.097,473h317.219
	C430.364,473,470,426.386,470,407.331V90.103C470,71.04,430.364,28,411.315,28z M424.599,241.252c0,0-13.826,14.645-41.746,12.45
	c-11.602,67.126-87.318,111.354-163.014,111.642c-99.761,0.537-139.025-62.73-139.025-62.73s66.591,53.053,126.553-7.477
	c0,0-21.267,1.127-22.643-10.498c-1.635-11.865,11.905-18.229,11.905-18.229s-33.458-1.946-40.905-19.352
	c0,0,2.21-7.455,19.888-10.777c0,0-33.163-10.212-34.813-33.697c0,0,13.516-2.766,19.079-2.766c0,0-29.039-15.745-27.934-41.458
	c0,0,92.019,31.229,114.662,59.969c0,0,17.158-58.855,54.179-84.273c0,0-1.4,5.793-2.754,8.283c0,0,15.173-10.228,25.125-10.228
	c0,0-5.261,6.348-9.952,9.116c0,0,16.597-3.303,24.876-2.768c0,0-12.41,10.229-28.167,13.552c0,0,63.813,5.529,73.235,67.423
	c10.465,1.922,25.691,3.311,41.449-1.662c0,0-4.429,16.034-35.115,18.508C389.482,236.279,402.741,244.573,424.599,241.252z"/>
</svg>
