<?xml version="1.0" encoding="utf-8"?>
<!-- Generator: Adobe Illustrator 16.0.0, SVG Export Plug-In . SVG Version: 6.00 Build 0)  -->
<!DOCTYPE svg PUBLIC "-//W3C//DTD SVG 1.1//EN" "http://www.w3.org/Graphics/SVG/1.1/DTD/svg11.dtd">
<svg version="1.1" id="Layer_1" xmlns="http://www.w3.org/2000/svg" xmlns:xlink="http://www.w3.org/1999/xlink" x="0px" y="0px"
	 width="554.688px" height="554.705px" viewBox="0 0 554.688 554.705" enable-background="new 0 0 554.688 554.705"
	 xml:space="preserve">
<g>
	<g>
		<path fill="#CCCBCB" d="M304.667,359.089l0.118-52.324l-29.49,0.051l-0.152,180.517l24.242-0.371l2.218-11.24
			c30.994,28.438,50.477,8.972,50.427-25.154l-0.068-70.318C351.946,353.434,331.885,337.354,304.667,359.089z M330.109,455.712
			c0,5.823-5.807,10.563-12.917,10.563c-7.109,0-12.898-4.739-12.898-10.563v-79.019c0-5.823,5.79-10.563,12.898-10.563
			c7.11,0,12.917,4.74,12.917,10.563V455.712z"/>
		<path fill="#CCCBCB" d="M228.085,438.31c0,12.257,0.743,18.351-0.051,20.517c-2.388,6.534-13.186,13.475-17.385,0.677
			c-0.711-2.234-0.085-9.005-0.101-20.583l-0.118-85.113h-29.354l0.085,83.759c0.034,12.831-0.271,22.412,0.102,26.746
			c0.728,7.685,0.474,16.656,7.601,21.734c13.271,9.616,38.73-1.422,45.095-15.1l-0.049,17.47l23.696,0.034V353.807h-29.521V438.31z
			"/>
		<polygon fill="#CCCBCB" points="186.866,330.243 186.866,306.799 92.493,306.646 92.493,329.702 121.948,329.77 121.948,488.483 
			151.47,488.483 151.453,330.243 		"/>
		<path fill="#CCCBCB" d="M270.014,204.521c7.194,0,13.053-6.466,13.053-14.405v-74.483c0-7.921-5.858-14.388-13.053-14.388
			c-7.177,0-13.085,6.466-13.085,14.388v74.483C256.929,198.055,262.837,204.521,270.014,204.521z"/>
		<path fill="#CCCBCB" d="M422.28,441.357c-0.019,0.88-0.052,1.896-0.068,3.013v12.357c0,6.602-5.45,11.984-12.087,11.984h-4.333
			c-6.636,0-12.087-5.383-12.087-11.984v-1.354v-13.609v-17.537h50.665v-19.061c0-13.949-0.356-27.863-1.507-35.854
			c-3.621-25.188-39-29.217-56.877-16.317c-5.62,4.062-9.902,9.444-12.391,16.689c-2.523,7.246-3.758,17.165-3.758,29.76v41.913
			c0,69.742,84.674,59.855,74.565-0.103L422.28,441.357z M394.212,384.684c0-7.245,5.927-13.136,13.188-13.136h1.775
			c7.264,0,13.206,5.891,13.206,13.136l-0.322,16.25h-27.98L394.212,384.684z"/>
		<path fill="#CCCBCB" d="M476.348,0H78.342C23.344,0,0,55.54,0,79.933v389.152c0,43.166,36.802,85.62,78.342,85.62h398.006
			c41.558,0,78.341-39.645,78.341-85.62V79.933C549.034,28.304,517.905,0,476.348,0z M327.483,83.437h27.019v108.896
			c0,5.891,4.875,10.715,10.783,10.715c5.94,0,10.8-4.825,10.8-10.715V83.437h25.9v139.908h-32.891l0.542-11.579
			c-2.236,4.706-4.993,8.244-8.279,10.596c-3.284,2.37-7.042,3.521-11.307,3.521c-4.842,0-8.906-1.117-12.069-3.351
			c-3.217-2.269-5.587-5.265-7.093-8.972c-1.524-3.741-2.455-7.617-2.843-11.646c-0.356-4.063-0.561-12.087-0.561-24.105V83.437z
			 M246.604,84.91c5.822-4.604,13.272-6.889,22.311-6.889c7.618,0,14.133,1.489,19.584,4.417c5.469,2.945,9.7,6.771,12.629,11.477
			c2.979,4.741,5.01,9.599,6.093,14.575c1.102,5.045,1.643,12.645,1.643,22.903v35.396c0,12.967-0.524,22.531-1.524,28.59
			c-0.999,6.078-3.148,11.715-6.481,16.996c-3.284,5.23-7.534,9.141-12.662,11.629c-5.197,2.522-11.139,3.758-17.859,3.758
			c-7.5,0-13.813-1.033-19.027-3.199c-5.214-2.15-9.243-5.4-12.121-9.7c-2.91-4.316-4.958-9.564-6.178-15.691
			c-1.235-6.128-1.845-15.32-1.845-27.593v-37.038c0-13.44,1.136-23.918,3.352-31.485C236.752,95.523,240.781,89.463,246.604,84.91z
			 M160.408,28.304l19.771,68.473L199.68,28.49h33.957l-36.682,91.935l-0.034,107.305h-31.045l-0.034-107.254l-39.035-92.171
			H160.408z M532.751,472.165c0,36.057-31.251,65.545-69.438,65.545H92.798c-38.206,0-69.455-29.488-69.455-65.545v-150.25
			c0-36.006,31.249-65.51,69.455-65.51h370.514c38.188,0,69.438,29.504,69.438,65.51V472.165z"/>
	</g>
</g>
</svg>
